<svg width="341" height="76" viewBox="0 0 341 76" fill="none" xmlns="http://www.w3.org/2000/svg">
<path d="M91.472 41.592V50.808C91.12 50.904 90.56 51 89.792 51.096C89.056 51.192 88.32 51.24 87.584 51.24C86.848 51.24 86.192 51.176 85.616 51.048C85.072 50.952 84.608 50.76 84.224 50.472C83.872 50.184 83.6 49.784 83.408 49.272C83.216 48.76 83.12 48.088 83.12 47.256V24.648C83.12 23.976 83.296 23.464 83.648 23.112C84.032 22.728 84.544 22.424 85.184 22.2C86.272 21.816 87.536 21.544 88.976 21.384C90.416 21.192 91.952 21.096 93.584 21.096C98 21.096 101.328 22.024 103.568 23.88C105.808 25.736 106.928 28.248 106.928 31.416C106.928 33.4 106.416 35.096 105.392 36.504C104.368 37.912 103.152 39 101.744 39.768C102.896 41.336 104.032 42.808 105.152 44.184C106.272 45.56 107.152 46.808 107.792 47.928C107.472 49.048 106.88 49.912 106.016 50.52C105.184 51.096 104.24 51.384 103.184 51.384C102.48 51.384 101.872 51.304 101.36 51.144C100.848 50.984 100.4 50.76 100.016 50.472C99.632 50.184 99.28 49.832 98.96 49.416C98.64 49 98.336 48.552 98.048 48.072L94.016 41.592H91.472ZM94.496 35.208C95.712 35.208 96.672 34.904 97.376 34.296C98.08 33.656 98.432 32.728 98.432 31.512C98.432 30.296 98.032 29.384 97.232 28.776C96.464 28.136 95.232 27.816 93.536 27.816C93.056 27.816 92.672 27.832 92.384 27.864C92.096 27.896 91.776 27.944 91.424 28.008V35.208H94.496ZM121.73 45.816C122.274 45.816 122.866 45.768 123.506 45.672C124.178 45.544 124.674 45.384 124.994 45.192V41.352L121.538 41.64C120.642 41.704 119.906 41.896 119.33 42.216C118.754 42.536 118.466 43.016 118.466 43.656C118.466 44.296 118.706 44.824 119.186 45.24C119.698 45.624 120.546 45.816 121.73 45.816ZM121.346 26.952C123.074 26.952 124.642 27.128 126.05 27.48C127.49 27.832 128.706 28.376 129.698 29.112C130.722 29.816 131.506 30.728 132.05 31.848C132.594 32.936 132.866 34.232 132.866 35.736V46.488C132.866 47.32 132.626 48.008 132.146 48.552C131.698 49.064 131.154 49.512 130.514 49.896C128.434 51.144 125.506 51.768 121.73 51.768C120.034 51.768 118.498 51.608 117.122 51.288C115.778 50.968 114.61 50.488 113.618 49.848C112.658 49.208 111.906 48.392 111.362 47.4C110.85 46.408 110.594 45.256 110.594 43.944C110.594 41.736 111.25 40.04 112.562 38.856C113.874 37.672 115.906 36.936 118.658 36.648L124.946 35.976V35.64C124.946 34.712 124.53 34.056 123.698 33.672C122.898 33.256 121.73 33.048 120.194 33.048C118.978 33.048 117.794 33.176 116.642 33.432C115.49 33.688 114.45 34.008 113.522 34.392C113.106 34.104 112.754 33.672 112.466 33.096C112.178 32.488 112.034 31.864 112.034 31.224C112.034 30.392 112.226 29.736 112.61 29.256C113.026 28.744 113.65 28.312 114.482 27.96C115.41 27.608 116.498 27.352 117.746 27.192C119.026 27.032 120.226 26.952 121.346 26.952ZM137.951 27.672C137.951 26.04 138.223 24.648 138.767 23.496C139.343 22.312 140.111 21.352 141.071 20.616C142.031 19.848 143.151 19.288 144.431 18.936C145.743 18.584 147.135 18.408 148.607 18.408C150.975 18.408 152.719 18.728 153.839 19.368C154.959 19.976 155.519 21.032 155.519 22.536C155.519 23.176 155.375 23.752 155.087 24.264C154.831 24.776 154.543 25.16 154.223 25.416C153.615 25.256 152.975 25.128 152.303 25.032C151.663 24.904 150.911 24.84 150.047 24.84C148.671 24.84 147.599 25.08 146.831 25.56C146.063 26.008 145.679 26.808 145.679 27.96V29.496H153.551C153.743 29.848 153.919 30.296 154.079 30.84C154.271 31.352 154.367 31.928 154.367 32.568C154.367 33.688 154.111 34.504 153.599 35.016C153.119 35.496 152.463 35.736 151.631 35.736H146.111V50.952C145.791 51.048 145.279 51.144 144.575 51.24C143.903 51.336 143.199 51.384 142.463 51.384C141.759 51.384 141.119 51.336 140.543 51.24C139.999 51.144 139.535 50.952 139.151 50.664C138.767 50.376 138.463 49.992 138.239 49.512C138.047 49 137.951 48.344 137.951 47.544V27.672ZM167.527 45.816C168.071 45.816 168.663 45.768 169.303 45.672C169.975 45.544 170.471 45.384 170.791 45.192V41.352L167.335 41.64C166.439 41.704 165.703 41.896 165.127 42.216C164.551 42.536 164.263 43.016 164.263 43.656C164.263 44.296 164.503 44.824 164.983 45.24C165.495 45.624 166.343 45.816 167.527 45.816ZM167.143 26.952C168.871 26.952 170.439 27.128 171.847 27.48C173.287 27.832 174.503 28.376 175.495 29.112C176.519 29.816 177.303 30.728 177.847 31.848C178.391 32.936 178.663 34.232 178.663 35.736V46.488C178.663 47.32 178.423 48.008 177.943 48.552C177.495 49.064 176.951 49.512 176.311 49.896C174.231 51.144 171.303 51.768 167.527 51.768C165.831 51.768 164.295 51.608 162.919 51.288C161.575 50.968 160.407 50.488 159.415 49.848C158.455 49.208 157.703 48.392 157.159 47.4C156.647 46.408 156.391 45.256 156.391 43.944C156.391 41.736 157.047 40.04 158.359 38.856C159.671 37.672 161.703 36.936 164.455 36.648L170.743 35.976V35.64C170.743 34.712 170.327 34.056 169.495 33.672C168.695 33.256 167.527 33.048 165.991 33.048C164.775 33.048 163.591 33.176 162.439 33.432C161.287 33.688 160.247 34.008 159.319 34.392C158.903 34.104 158.551 33.672 158.263 33.096C157.975 32.488 157.831 31.864 157.831 31.224C157.831 30.392 158.023 29.736 158.407 29.256C158.823 28.744 159.447 28.312 160.279 27.96C161.207 27.608 162.295 27.352 163.543 27.192C164.823 27.032 166.023 26.952 167.143 26.952ZM194.644 50.952C194.292 51.016 193.764 51.096 193.06 51.192C192.388 51.32 191.7 51.384 190.996 51.384C190.292 51.384 189.652 51.336 189.076 51.24C188.532 51.144 188.068 50.952 187.684 50.664C187.3 50.376 186.996 49.992 186.772 49.512C186.58 49 186.484 48.344 186.484 47.544V39.576L183.892 40.632C183.444 40.28 182.948 39.736 182.404 39C181.892 38.264 181.636 37.448 181.636 36.552C181.636 35.432 182.196 34.648 183.316 34.2L186.484 32.904V19.704C186.836 19.64 187.348 19.56 188.02 19.464C188.724 19.336 189.428 19.272 190.132 19.272C190.836 19.272 191.46 19.32 192.004 19.416C192.58 19.512 193.06 19.704 193.444 19.992C193.828 20.28 194.116 20.68 194.308 21.192C194.532 21.672 194.644 22.312 194.644 23.112V29.496L197.092 28.44C197.316 28.632 197.556 28.872 197.812 29.16C198.068 29.448 198.308 29.768 198.532 30.12C198.788 30.472 198.996 30.872 199.156 31.32C199.316 31.736 199.396 32.152 199.396 32.568C199.396 33.144 199.236 33.624 198.916 34.008C198.596 34.36 198.18 34.648 197.668 34.872L194.644 36.168V50.952ZM223.485 35.4C224.829 35.4 225.853 35.096 226.557 34.488C227.293 33.848 227.661 32.888 227.661 31.608C227.661 30.392 227.277 29.464 226.509 28.824C225.773 28.152 224.685 27.816 223.245 27.816C222.733 27.816 222.301 27.832 221.949 27.864C221.629 27.864 221.293 27.896 220.941 27.96V35.4H223.485ZM220.989 50.808C220.637 50.904 220.077 51 219.309 51.096C218.573 51.192 217.837 51.24 217.101 51.24C216.365 51.24 215.709 51.176 215.133 51.048C214.589 50.952 214.125 50.76 213.741 50.472C213.357 50.184 213.069 49.784 212.877 49.272C212.685 48.76 212.589 48.088 212.589 47.256V24.648C212.589 23.976 212.765 23.464 213.117 23.112C213.501 22.728 214.013 22.424 214.653 22.2C215.741 21.816 216.973 21.544 218.349 21.384C219.757 21.192 221.165 21.096 222.573 21.096C226.989 21.096 230.365 22.04 232.701 23.928C235.037 25.816 236.205 28.376 236.205 31.608C236.205 33.176 235.949 34.6 235.437 35.88C234.957 37.128 234.221 38.216 233.229 39.144C232.269 40.04 231.037 40.744 229.533 41.256C228.061 41.736 226.349 41.976 224.397 41.976H220.989V50.808ZM243.503 45.048C243.151 44.248 242.767 43.352 242.351 42.36C241.967 41.368 241.551 40.232 241.103 38.952C240.687 37.672 240.239 36.216 239.759 34.584C239.311 32.92 238.831 31.016 238.319 28.872C238.767 28.424 239.359 28.04 240.095 27.72C240.863 27.368 241.695 27.192 242.591 27.192C243.711 27.192 244.639 27.432 245.375 27.912C246.111 28.36 246.655 29.224 247.007 30.504L250.799 43.704H250.991C251.375 42.616 251.743 41.432 252.095 40.152C252.479 38.872 252.847 37.56 253.199 36.216C253.551 34.84 253.871 33.48 254.159 32.136C254.479 30.76 254.751 29.416 254.975 28.104C256.127 27.496 257.391 27.192 258.767 27.192C259.887 27.192 260.815 27.432 261.551 27.912C262.287 28.392 262.655 29.224 262.655 30.408C262.655 31.272 262.543 32.28 262.319 33.432C262.095 34.552 261.791 35.752 261.407 37.032C261.055 38.312 260.623 39.64 260.111 41.016C259.631 42.36 259.119 43.688 258.575 45C258.031 46.312 257.471 47.56 256.895 48.744C256.319 49.896 255.759 50.936 255.215 51.864C254.319 53.432 253.487 54.712 252.719 55.704C251.951 56.696 251.215 57.464 250.511 58.008C249.807 58.584 249.103 58.968 248.399 59.16C247.695 59.384 246.959 59.496 246.191 59.496C244.847 59.496 243.759 59.096 242.927 58.296C242.095 57.496 241.599 56.456 241.439 55.176C242.463 54.376 243.487 53.48 244.511 52.488C245.535 51.528 246.463 50.536 247.295 49.512C246.751 49.352 246.159 48.984 245.519 48.408C244.911 47.8 244.239 46.68 243.503 45.048ZM285.973 44.04C285.973 46.472 285.061 48.376 283.237 49.752C281.413 51.128 278.725 51.816 275.173 51.816C273.829 51.816 272.581 51.72 271.429 51.528C270.277 51.336 269.285 51.048 268.453 50.664C267.653 50.248 267.013 49.736 266.533 49.128C266.085 48.52 265.861 47.8 265.861 46.968C265.861 46.2 266.021 45.56 266.341 45.048C266.661 44.504 267.045 44.056 267.493 43.704C268.421 44.216 269.477 44.68 270.661 45.096C271.877 45.48 273.269 45.672 274.837 45.672C275.829 45.672 276.581 45.528 277.093 45.24C277.637 44.952 277.909 44.568 277.909 44.088C277.909 43.64 277.717 43.288 277.333 43.032C276.949 42.776 276.309 42.568 275.413 42.408L273.973 42.12C271.189 41.576 269.109 40.728 267.733 39.576C266.389 38.392 265.717 36.712 265.717 34.536C265.717 33.352 265.973 32.28 266.485 31.32C266.997 30.36 267.717 29.56 268.645 28.92C269.573 28.28 270.677 27.784 271.957 27.432C273.269 27.08 274.709 26.904 276.277 26.904C277.461 26.904 278.565 27 279.589 27.192C280.645 27.352 281.557 27.608 282.325 27.96C283.093 28.312 283.701 28.776 284.149 29.352C284.597 29.896 284.821 30.552 284.821 31.32C284.821 32.056 284.677 32.696 284.389 33.24C284.133 33.752 283.797 34.184 283.381 34.536C283.125 34.376 282.741 34.216 282.229 34.056C281.717 33.864 281.157 33.704 280.549 33.576C279.941 33.416 279.317 33.288 278.677 33.192C278.069 33.096 277.509 33.048 276.997 33.048C275.941 33.048 275.125 33.176 274.549 33.432C273.973 33.656 273.685 34.024 273.685 34.536C273.685 34.888 273.845 35.176 274.165 35.4C274.485 35.624 275.093 35.832 275.989 36.024L277.477 36.36C280.549 37.064 282.725 38.04 284.005 39.288C285.317 40.504 285.973 42.088 285.973 44.04ZM312.718 46.776C312.558 48.28 312.11 49.432 311.374 50.232C310.67 51.032 309.63 51.432 308.254 51.432C307.23 51.432 306.318 51.192 305.518 50.712C304.718 50.2 303.854 49.352 302.926 48.168L298.174 42.216V50.952C297.822 51.016 297.294 51.096 296.59 51.192C295.918 51.32 295.23 51.384 294.526 51.384C293.822 51.384 293.182 51.336 292.606 51.24C292.062 51.144 291.598 50.952 291.214 50.664C290.83 50.376 290.526 49.992 290.302 49.512C290.11 49 290.014 48.344 290.014 47.544V19.752C290.366 19.656 290.878 19.56 291.55 19.464C292.254 19.336 292.958 19.272 293.662 19.272C294.366 19.272 294.99 19.32 295.534 19.416C296.11 19.512 296.59 19.704 296.974 19.992C297.358 20.28 297.646 20.68 297.838 21.192C298.062 21.672 298.174 22.312 298.174 23.112V35.784L306.43 27.336C308.094 27.336 309.422 27.704 310.414 28.44C311.438 29.176 311.95 30.104 311.95 31.224C311.95 31.704 311.87 32.152 311.71 32.568C311.55 32.952 311.294 33.352 310.942 33.768C310.622 34.184 310.19 34.632 309.646 35.112C309.134 35.56 308.526 36.088 307.822 36.696L305.038 39.096L312.718 46.776ZM326.621 45.816C327.165 45.816 327.757 45.768 328.397 45.672C329.069 45.544 329.565 45.384 329.885 45.192V41.352L326.429 41.64C325.533 41.704 324.797 41.896 324.221 42.216C323.645 42.536 323.357 43.016 323.357 43.656C323.357 44.296 323.597 44.824 324.077 45.24C324.589 45.624 325.437 45.816 326.621 45.816ZM326.237 26.952C327.965 26.952 329.533 27.128 330.941 27.48C332.381 27.832 333.597 28.376 334.589 29.112C335.613 29.816 336.397 30.728 336.941 31.848C337.485 32.936 337.757 34.232 337.757 35.736V46.488C337.757 47.32 337.517 48.008 337.037 48.552C336.589 49.064 336.045 49.512 335.405 49.896C333.325 51.144 330.397 51.768 326.621 51.768C324.925 51.768 323.389 51.608 322.013 51.288C320.669 50.968 319.501 50.488 318.509 49.848C317.549 49.208 316.797 48.392 316.253 47.4C315.741 46.408 315.485 45.256 315.485 43.944C315.485 41.736 316.141 40.04 317.453 38.856C318.765 37.672 320.797 36.936 323.549 36.648L329.837 35.976V35.64C329.837 34.712 329.421 34.056 328.589 33.672C327.789 33.256 326.621 33.048 325.085 33.048C323.869 33.048 322.685 33.176 321.533 33.432C320.381 33.688 319.341 34.008 318.413 34.392C317.997 34.104 317.645 33.672 317.357 33.096C317.069 32.488 316.925 31.864 316.925 31.224C316.925 30.392 317.117 29.736 317.501 29.256C317.917 28.744 318.541 28.312 319.373 27.96C320.301 27.608 321.389 27.352 322.637 27.192C323.917 27.032 325.117 26.952 326.237 26.952Z" fill="#333333"/>
<path d="M45.4 42.1001L49.4 44.1001C50.7 44.9001 51.1001 46.0001 50.6001 47.5001C49.9001 49.5001 48.3001 52.1001 45.7001 55.2001C44.7001 56.4001 43.5001 56.6001 42.2001 55.8001L38.7001 53.8001C36.8001 55.4001 34.7 56.7001 32.4 57.6001V61.6001C32.4 62.2001 32.2001 62.8001 31.7001 63.4001C31.2001 63.9001 30.7001 64.3001 30.1001 64.3001C27.1001 64.8001 24.2001 64.8001 21.2001 64.3001C20.5001 64.2001 19.9 63.9001 19.5 63.4001C19.1 62.9001 18.9 62.3001 18.9 61.6001V57.6001C16.5 56.7001 14.3 55.5001 12.5 53.8001L9.10005 55.8001C7.80005 56.6001 6.60005 56.4001 5.60005 55.2001C3.10005 52.2001 1.50006 49.6001 0.700058 47.5001C0.200058 46.0001 0.500039 44.9001 1.90004 44.1001L5.80003 42.1001C5.30003 39.6001 5.30003 37.1001 5.80003 34.7001L1.90004 32.7001C0.500039 31.9001 0.100058 30.8001 0.700058 29.3001C1.50006 27.2001 3.10005 24.6001 5.60005 21.6001C6.50005 20.4001 7.70005 20.2001 9.10005 21.0001L12.5 22.9001C14.5 21.3001 16.6 20.0001 18.9 19.3001V15.3001C18.9 14.6001 19.1 14.0001 19.5 13.5001C19.9 13.0001 20.5001 12.7001 21.2001 12.6001C24.2001 12.1001 27.1001 12.1001 30.1001 12.6001C30.4001 12.6001 30.7 12.7001 31 12.9001C31.3 13.1001 31.5 13.3001 31.8 13.5001C32.1 13.7001 32.2 14.0001 32.3 14.3001C32.4 14.6001 32.5 14.9001 32.5 15.2001V19.2001C34.8 20.1001 37 21.3001 38.8 22.8001L42.3 20.9001C43.6 20.0001 44.8 20.2001 45.8 21.5001C48.3 24.5001 49.9001 27.0001 50.7001 29.2001C51.2001 30.7001 50.9 31.8001 49.5 32.6001L45.5 34.6001C45.8 37.2001 45.8 39.6001 45.4 42.1001ZM31.7001 44.6001C33.0001 42.9001 33.8 41.1001 33.9 39.2001C34.1 37.3001 33.7 35.7001 32.8 34.3001C31.9 32.9001 30.8 31.8001 29.5 31.0001C28.1 30.1001 26.5001 29.8001 24.6001 30.0001C22.7001 30.2001 20.9001 31.0001 19.2001 32.3001C17.9001 34.0001 17.1 35.8001 17 37.7001C16.8 39.6001 17.2001 41.2001 18.1001 42.6001C19.0001 44.0001 20.1 45.1001 21.4 45.9001C22.8 46.8001 24.4 47.1001 26.3 46.9001C28.1 46.7001 29.9001 45.9001 31.7001 44.6001ZM60.1001 31.0001L59.2001 32.6001C58.8001 33.3001 58.2 33.5001 57.4 33.3001C56 32.8001 54.7001 32.0001 53.6001 31.1001C53.0001 30.6001 52.9001 29.9001 53.2001 29.2001L54.1001 27.6001C53.3001 26.7001 52.7001 25.6001 52.2001 24.4001H50.3C49.4 24.4001 49 24.0001 48.9 23.1001C48.6 21.7001 48.6 20.2001 48.9 18.8001C49 18.0001 49.4 17.6001 50.3 17.6001H52.2001C52.7001 16.4001 53.3001 15.4001 54.1001 14.4001L53.2001 12.6001C52.8001 11.9001 52.9001 11.3001 53.6001 10.8001C54.7001 9.90007 55.9 9.10009 57.4 8.60009C58.2 8.30009 58.8001 8.50009 59.2001 9.20009L60.1001 11.0001C61.3001 10.8001 62.6 10.8001 63.9 11.0001L64.8 9.20009C65.2 8.50009 65.8 8.30009 66.6001 8.60009C68.0001 9.10009 69.3 9.80007 70.4 10.8001C71 11.3001 71.1 11.9001 70.8 12.6001L69.9 14.4001C70.7 15.3001 71.3 16.4001 71.8 17.6001H73.7001C74.6001 17.6001 75.0001 18.0001 75.1001 18.8001C75.4001 20.3001 75.4001 21.7001 75.1001 23.1001C75.0001 24.0001 74.6001 24.4001 73.7001 24.4001H71.8C71.3 25.6001 70.7 26.6001 69.9 27.6001L70.8 29.2001C71.2 30.0001 71.1 30.6001 70.4 31.1001C69.3 32.0001 68.1001 32.8001 66.6001 33.3001C65.8 33.5001 65.2 33.3001 64.8 32.6001L63.9 31.0001C62.6 31.2001 61.4001 31.2001 60.1001 31.0001ZM60.1001 66.0001L59.2001 67.6001C58.8001 68.3001 58.2 68.5001 57.4 68.3001C56 67.8001 54.7001 67.0001 53.6001 66.1001C53.0001 65.6001 52.9001 64.9001 53.2001 64.2001L54.1001 62.6001C53.3001 61.7001 52.7001 60.6001 52.2001 59.4001H50.3C49.4 59.4001 49 59.0001 48.9 58.1001C48.6 56.7001 48.6 55.2001 48.9 53.8001C49 53.0001 49.4 52.6001 50.3 52.6001H52.2001C52.7001 51.4001 53.3001 50.3001 54.1001 49.3001L53.2001 47.7001C52.8001 47.0001 52.9001 46.4001 53.6001 45.8001C54.7001 44.9001 55.9 44.2001 57.4 43.7001C58.2 43.4001 58.8001 43.6001 59.2001 44.3001L60.1001 46.1001C61.3001 45.9001 62.6 45.9001 63.9 46.1001L64.8 44.3001C65.2 43.6001 65.8 43.4001 66.6001 43.7001C68.0001 44.2001 69.3 44.9001 70.4 45.8001C71 46.3001 71.1 47.0001 70.8 47.7001L69.9 49.3001C70.7 50.3001 71.3 51.4001 71.8 52.6001H73.7001C74.6001 52.6001 75.0001 53.0001 75.1001 53.8001C75.4001 55.3001 75.4001 56.7001 75.1001 58.1001C75.0001 59.0001 74.6001 59.4001 73.7001 59.4001H71.8C71.3 60.6001 70.7 61.6001 69.9 62.6001L70.8 64.2001C71.2 64.9001 71.1 65.5001 70.4 66.1001C69.3 67.0001 68.1001 67.8001 66.6001 68.3001C65.8 68.5001 65.2 68.3001 64.8 67.6001L63.9 66.0001C62.6 66.3001 61.4001 66.3001 60.1001 66.0001ZM59 24.1001C60.4 25.2001 61.9 25.5001 63.3 25.0001C64.8 24.5001 65.7001 23.6001 66.1001 22.2001C66.5001 20.8001 66.1001 19.4001 65.1001 17.8001C63.7001 16.7001 62.2 16.4001 60.8 16.9001C59.3 17.4001 58.4 18.3001 58 19.7001C57.6 21.1001 57.9 22.5001 59 24.1001ZM59 59.1001C60.4 60.2001 61.9 60.5001 63.3 60.0001C64.8 59.5001 65.7001 58.6001 66.1001 57.2001C66.5001 55.8001 66.1001 54.4001 65.1001 52.8001C63.7001 51.7001 62.2 51.4001 60.8 51.9001C59.3 52.4001 58.4 53.3001 58 54.7001C57.6 56.1001 57.9 57.6001 59 59.1001Z" fill="#3B82F6"/>
</svg>
